<svg width="1600" height="900" xmlns="http://www.w3.org/2000/svg" xmlns:xlink="http://www.w3.org/1999/xlink">
  <defs>
    <!-- Gradients -->
    <linearGradient id="bgGradient" x1="0%" y1="0%" x2="100%" y2="100%">
      <stop offset="0%" stop-color="#0F172A"/>
      <stop offset="100%" stop-color="#1E293B"/>
    </linearGradient>
    
    <linearGradient id="mainGradient" x1="0%" y1="0%" x2="100%" y2="0%">
      <stop offset="0%" stop-color="#1E40AF"/>
      <stop offset="100%" stop-color="#3730A3"/>
    </linearGradient>
    
    <linearGradient id="securityGradient" x1="0%" y1="0%" x2="100%" y2="0%">
      <stop offset="0%" stop-color="#DC2626"/>
      <stop offset="100%" stop-color="#B91C1C"/>
    </linearGradient>
    
    <linearGradient id="devopsGradient" x1="0%" y1="0%" x2="100%" y2="0%">
      <stop offset="0%" stop-color="#059669"/>
      <stop offset="100%" stop-color="#047857"/>
    </linearGradient>
    
    <linearGradient id="dataGradient" x1="0%" y1="0%" x2="100%" y2="0%">
      <stop offset="0%" stop-color="#7C3AED"/>
      <stop offset="100%" stop-color="#6D28D9"/>
    </linearGradient>
    
    <linearGradient id="webGradient" x1="0%" y1="0%" x2="100%" y2="0%">
      <stop offset="0%" stop-color="#F59E0B"/>
      <stop offset="100%" stop-color="#D97706"/>
    </linearGradient>
    
    <!-- Icons -->
    <symbol id="terminal" viewBox="0 0 24 24">
      <rect x="2" y="3" width="20" height="18" rx="2" fill="#1E40AF" stroke="#1E40AF" stroke-width="2"/>
      <path d="M6 7 L10 11 L6 15 M12 15 H18" stroke="white" stroke-width="2" fill="none" stroke-linecap="round"/>
    </symbol>
    
    <symbol id="server" viewBox="0 0 24 24">
      <rect x="2" y="4" width="20" height="16" rx="2" fill="#059669"/>
      <line x1="6" y1="8" x2="18" y2="8" stroke="white" stroke-width="2"/>
      <line x1="6" y1="12" x2="18" y2="12" stroke="white" stroke-width="2"/>
      <line x1="6" y1="16" x2="18" y2="16" stroke="white" stroke-width="2"/>
    </symbol>
    
    <symbol id="shield" viewBox="0 0 24 24">
      <path d="M12 22s8-4 8-10V5l-8-3-8 3v7c0 6 8 10 8 10z" fill="#DC2626" stroke="#DC2626" stroke-width="2"/>
      <path d="M9 12l2 2 4-4" stroke="white" stroke-width="2" fill="none" stroke-linecap="round"/>
    </symbol>
    
    <symbol id="container" viewBox="0 0 24 24">
      <rect x="2" y="6" width="20" height="12" rx="1" fill="#7C3AED"/>
      <rect x="5" y="9" width="14" height="2" fill="white"/>
      <rect x="5" y="13" width="10" height="2" fill="white"/>
    </symbol>
    
    <symbol id="database" viewBox="0 0 24 24">
      <ellipse cx="12" cy="5" rx="9" ry="3" fill="#F59E0B"/>
      <path d="M3 5v14c0 1.66 4.03 3 9 3s9-1.34 9-3V5" fill="#F59E0B"/>
      <path d="M3 12c0 1.66 4.03 3 9 3s9-1.34 9-3" fill="#D97706"/>
    </symbol>
  </defs>

  <!-- Background -->
  <rect width="100%" height="100%" fill="url(#bgGradient)"/>
  
  <!-- Title -->
  <text x="800" y="60" text-anchor="middle" font-family="Arial, sans-serif" font-size="36" font-weight="bold" fill="white">
    TITAN OS - SYSTEM ARCHITECTURE
  </text>
  <text x="800" y="95" text-anchor="middle" font-family="Arial, sans-serif" font-size="18" fill="#94A3B8">
    Ubuntu 22.04 Complete Automation Suite - Enterprise Grade
  </text>

  <!-- ========== LAYER 1: USER INPUT ========== -->
  <g transform="translate(100, 150)">
    <!-- User Terminal -->
    <rect x="0" y="0" width="300" height="120" rx="10" fill="url(#mainGradient)" opacity="0.9"/>
    <use xlink:href="#terminal" x="20" y="25" width="40" height="40"/>
    <text x="70" y="45" font-family="Arial, sans-serif" font-size="16" font-weight="bold" fill="white">USER TERMINAL</text>
    <text x="20" y="75" font-family="Arial, sans-serif" font-size="12" fill="#E5E7EB">$ ./setup-ubuntu-completo.sh</text>
    <text x="20" y="95" font-family="Arial, sans-serif" font-size="12" fill="#E5E7EB">$ ./wordpress-production.sh</text>
    
    <!-- Arrow to Core -->
    <path d="M 300 60 L 400 60" stroke="#60A5FA" stroke-width="3" fill="none" marker-end="url(#arrowhead)"/>
  </g>

  <!-- ========== LAYER 2: CORE SYSTEM ========== -->
  <g transform="translate(450, 120)">
    <!-- Main Script Core -->
    <rect x="0" y="0" width="700" height="180" rx="15" fill="url(#mainGradient)" opacity="0.8"/>
    <text x="350" y="30" text-anchor="middle" font-family="Arial, sans-serif" font-size="20" font-weight="bold" fill="white">
      TITAN OS CORE SCRIPT
    </text>
    
    <!-- Script Modules -->
    <g transform="translate(20, 50)">
      <!-- System Update -->
      <rect x="0" y="0" width="150" height="50" rx="8" fill="#1E40AF"/>
      <text x="75" y="20" text-anchor="middle" font-family="Arial, sans-serif" font-size="10" fill="white">SYSTEM UPDATE</text>
      <text x="75" y="35" text-anchor="middle" font-family="Arial, sans-serif" font-size="8" fill="#E5E7EB">apt update & upgrade</text>
      
      <!-- Essential Tools -->
      <rect x="170" y="0" width="150" height="50" rx="8" fill="#1E40AF"/>
      <text x="245" y="20" text-anchor="middle" font-family="Arial, sans-serif" font-size="10" fill="white">ESSENTIAL TOOLS</text>
      <text x="245" y="35" text-anchor="middle" font-family="Arial, sans-serif" font-size="8" fill="#E5E7EB">git, curl, vim, htop</text>
      
      <!-- Web Stack -->
      <rect x="340" y="0" width="150" height="50" rx="8" fill="#1E40AF"/>
      <text x="415" y="20" text-anchor="middle" font-family="Arial, sans-serif" font-size="10" fill="white">WEB STACK</text>
      <text x="415" y="35" text-anchor="middle" font-family="Arial, sans-serif" font-size="8" fill="#E5E7EB">Apache, Nginx, PHP</text>
      
      <!-- Python Ecosystem -->
      <rect x="0" y="70" width="150" height="50" rx="8" fill="#1E40AF"/>
      <text x="75" y="90" text-anchor="middle" font-family="Arial, sans-serif" font-size="10" fill="white">PYTHON & AI</text>
      <text x="75" y="105" text-anchor="middle" font-family="Arial, sans-serif" font-size="8" fill="#E5E7EB">Jupyter, TensorFlow</text>
      
      <!-- Security Tools -->
      <rect x="170" y="70" width="150" height="50" rx="8" fill="#DC2626"/>
      <text x="245" y="90" text-anchor="middle" font-family="Arial, sans-serif" font-size="10" fill="white">SECURITY</text>
      <text x="245" y="105" text-anchor="middle" font-family="Arial, sans-serif" font-size="8" fill="#E5E7EB">nmap, metasploit</text>
      
      <!-- DevOps -->
      <rect x="340" y="70" width="150" height="50" rx="8" fill="#059669"/>
      <text x="415" y="90" text-anchor="middle" font-family="Arial, sans-serif" font-size="10" fill="white">DEVOPS</text>
      <text x="415" y="105" text-anchor="middle" font-family="Arial, sans-serif" font-size="8" fill="#E5E7EB">Docker, Kubernetes</text>
      
      <!-- Data Science -->
      <rect x="510" y="70" width="150" height="50" rx="8" fill="#7C3AED"/>
      <text x="585" y="90" text-anchor="middle" font-family="Arial, sans-serif" font-size="10" fill="white">DATA SCIENCE</text>
      <text x="585" y="105" text-anchor="middle" font-family="Arial, sans-serif" font-size="8" fill="#E5E7EB">R, Pandas, Plotly</text>
    </g>
  </g>

  <!-- ========== LAYER 3: DEPLOYED SERVICES ========== -->
  <g transform="translate(100, 350)">
    
    <!-- Web Services Cluster -->
    <g transform="translate(0, 0)">
      <rect x="0" y="0" width="350" height="200" rx="10" fill="url(#webGradient)" opacity="0.9"/>
      <text x="175" y="25" text-anchor="middle" font-family="Arial, sans-serif" font-size="16" font-weight="bold" fill="white">
        WEB SERVICES STACK
      </text>
      
      <!-- Apache -->
      <rect x="20" y="45" width="90" height="60" rx="5" fill="#F59E0B"/>
      <use xlink:href="#server" x="45" y="55" width="40" height="40"/>
      <text x="65" y="115" text-anchor="middle" font-family="Arial, sans-serif" font-size="10" fill="white">Apache2</text>
      
      <!-- Nginx -->
      <rect x="130" y="45" width="90" height="60" rx="5" fill="#D97706"/>
      <use xlink:href="#server" x="155" y="55" width="40" height="40"/>
      <text x="175" y="115" text-anchor="middle" font-family="Arial, sans-serif" font-size="10" fill="white">Nginx</text>
      
      <!-- PHP -->
      <rect x="240" y="45" width="90" height="60" rx="5" fill="#B45309"/>
      <text x="285" y="75" text-anchor="middle" font-family="Arial, sans-serif" font-size="24" font-weight="bold" fill="white">PHP</text>
      <text x="285" y="115" text-anchor="middle" font-family="Arial, sans-serif" font-size="10" fill="white">8.1 + Extensions</text>
      
      <!-- MySQL -->
      <rect x="20" y="130" width="150" height="50" rx="5" fill="#92400E"/>
      <use xlink:href="#database" x="45" y="140" width="30" height="30"/>
      <text x="95" y="150" text-anchor="middle" font-family="Arial, sans-serif" font-size="12" fill="white">MySQL 8.0</text>
      
      <!-- Node.js -->
      <rect x="180" y="130" width="150" height="50" rx="5" fill="#78350F"/>
      <text x="255" y="150" text-anchor="middle" font-family="Arial, sans-serif" font-size="14" font-weight="bold" fill="white">Node.js 18.x</text>
    </g>

    <!-- Security Tools Cluster -->
    <g transform="translate(380, 0)">
      <rect x="0" y="0" width="350" height="200" rx="10" fill="url(#securityGradient)" opacity="0.9"/>
      <text x="175" y="25" text-anchor="middle" font-family="Arial, sans-serif" font-size="16" font-weight="bold" fill="white">
        SECURITY & MONITORING
      </text>
      
      <!-- Security Tools Grid -->
      <g transform="translate(20, 45)">
        <rect x="0" y="0" width="70" height="40" rx="5" fill="#DC2626"/>
        <text x="35" y="15" text-anchor="middle" font-family="Arial, sans-serif" font-size="8" fill="white">NMAP</text>
        
        <rect x="80" y="0" width="70" height="40" rx="5" fill="#DC2626"/>
        <text x="115" y="15" text-anchor="middle" font-family="Arial, sans-serif" font-size="8" fill="white">WIRESHARK</text>
        
        <rect x="160" y="0" width="70" height="40" rx="5" fill="#DC2626"/>
        <text x="195" y="15" text-anchor="middle" font-family="Arial, sans-serif" font-size="8" fill="white">METASPLOIT</text>
        
        <rect x="240" y="0" width="70" height="40" rx="5" fill="#DC2626"/>
        <text x="275" y="15" text-anchor="middle" font-family="Arial, sans-serif" font-size="8" fill="white">SQLMAP</text>
        
        <!-- Second Row -->
        <rect x="0" y="50" width="70" height="40" rx="5" fill="#B91C1C"/>
        <text x="35" y="65" text-anchor="middle" font-family="Arial, sans-serif" font-size="8" fill="white">JOHN</text>
        
        <rect x="80" y="50" width="70" height="40" rx="5" fill="#B91C1C"/>
        <text x="115" y="65" text-anchor="middle" font-family="Arial, sans-serif" font-size="8" fill="white">HASHCAT</text>
        
        <rect x="160" y="50" width="70" height="40" rx="5" fill="#B91C1C"/>
        <text x="195" y="65" text-anchor="middle" font-family="Arial, sans-serif" font-size="8" fill="white">HYDRA</text>
        
        <rect x="240" y="50" width="70" height="40" rx="5" fill="#B91C1C"/>
        <text x="275" y="65" text-anchor="middle" font-family="Arial, sans-serif" font-size="8" fill="white">AIRCRACK</text>
        
        <!-- Firewall -->
        <rect x="0" y="110" width="150" height="40" rx="5" fill="#991B1B"/>
        <use xlink:href="#shield" x="20" y="115" width="25" height="25"/>
        <text x="75" y="125" text-anchor="middle" font-family="Arial, sans-serif" font-size="10" fill="white">UFW FIREWALL</text>
        
        <!-- SSH -->
        <rect x="160" y="110" width="150" height="40" rx="5" fill="#991B1B"/>
        <text x="235" y="125" text-anchor="middle" font-family="Arial, sans-serif" font-size="10" fill="white">SSH SERVER</text>
      </g>
    </g>

    <!-- DevOps & Data Science Cluster -->
    <g transform="translate(760, 0)">
      <rect x="0" y="0" width="350" height="200" rx="10" fill="url(#devopsGradient)" opacity="0.9"/>
      <text x="175" y="25" text-anchor="middle" font-family="Arial, sans-serif" font-size="16" font-weight="bold" fill="white">
        DEVOPS & DATA SCIENCE
      </text>
      
      <!-- Docker -->
      <rect x="20" y="45" width="100" height="70" rx="5" fill="#059669"/>
      <use xlink:href="#container" x="45" y="55" width="50" height="50"/>
      <text x="70" y="125" text-anchor="middle" font-family="Arial, sans-serif" font-size="10" fill="white">Docker</text>
      
      <!-- Kubernetes -->
      <rect x="140" y="45" width="100" height="70" rx="5" fill="#047857"/>
      <text x="190" y="75" text-anchor="middle" font-family="Arial, sans-serif" font-size="14" font-weight="bold" fill="white">k8s</text>
      <text x="190" y="125" text-anchor="middle" font-family="Arial, sans-serif" font-size="10" fill="white">Kubernetes</text>
      
      <!-- Data Science -->
      <rect x="260" y="45" width="70" height="70" rx="5" fill="url(#dataGradient)"/>
      <text x="295" y="75" text-anchor="middle" font-family="Arial, sans-serif" font-size="12" font-weight="bold" fill="white">Py</text>
      <text x="295" y="125" text-anchor="middle" font-family="Arial, sans-serif" font-size="8" fill="white">Python DS</text>
      
      <!-- Jupyter -->
      <rect x="20" y="130" width="150" height="50" rx="5" fill="#7C3AED"/>
      <text x="95" y="150" text-anchor="middle" font-family="Arial, sans-serif" font-size="12" fill="white">Jupyter Lab</text>
      
      <!-- R Studio -->
      <rect x="180" y="130" width="150" height="50" rx="5" fill="#6D28D9"/>
      <text x="255" y="150" text-anchor="middle" font-family="Arial, sans-serif" font-size="12" fill="white">R Studio</text>
    </g>
  </g>

  <!-- ========== LAYER 4: WORDPRESS DOCKER DEPLOYMENT ========== -->
  <g transform="translate(100, 580)">
    <rect x="0" y="0" width="1400" height="200" rx="10" fill="#1E293B" stroke="#334155" stroke-width="2"/>
    <text x="700" y="25" text-anchor="middle" font-family="Arial, sans-serif" font-size="18" font-weight="bold" fill="#F59E0B">
      WORDPRESS PRODUCTION DEPLOYMENT (DOCKER)
    </text>
    
    <!-- Docker Network -->
    <rect x="50" y="50" width="1300" height="120" rx="8" fill="#0F172A" stroke="#1E40AF" stroke-width="2"/>
    <text x="60" y="40" font-family="Arial, sans-serif" font-size="12" fill="#60A5FA">wordpress-network</text>
    
    <!-- MySQL Container -->
    <rect x="100" y="70" width="200" height="80" rx="5" fill="#1E40AF"/>
    <use xlink:href="#database" x="120" y="80" width="40" height="40"/>
    <text x="200" y="95" text-anchor="middle" font-family="Arial, sans-serif" font-size="12" fill="white">MySQL 8.0</text>
    <text x="200" y="115" text-anchor="middle" font-family="Arial, sans-serif" font-size="10" fill="#E5E7EB">Port: 3306</text>
    <text x="200" y="130" text-anchor="middle" font-family="Arial, sans-serif" font-size="8" fill="#A5B4FC">Auto-generated passwords</text>
    
    <!-- WordPress Container -->
    <rect x="350" y="70" width="250" height="80" rx="5" fill="#059669"/>
    <text x="475" y="95" text-anchor="middle" font-family="Arial, sans-serif" font-size="14" font-weight="bold" fill="white">WordPress</text>
    <text x="475" y="115" text-anchor="middle" font-family="Arial, sans-serif" font-size="10" fill="#E5E7EB">PHP 8.2 + Apache</text>
    <text x="475" y="130" text-anchor="middle" font-family="Arial, sans-serif" font-size="8" fill="#A7F3D0">Port: 8080</text>
    
    <!-- Nginx Proxy -->
    <rect x="650" y="70" width="200" height="80" rx="5" fill="#DC2626"/>
    <text x="750" y="95" text-anchor="middle" font-family="Arial, sans-serif" font-size="12" fill="white">Nginx Proxy</text>
    <text x="750" y="115" text-anchor="middle" font-family="Arial, sans-serif" font-size="10" fill="#E5E7EB">SSL Termination</text>
    <text x="750" y="130" text-anchor="middle" font-family="Arial, sans-serif" font-size="8" fill="#FCA5A5">Ports: 80/443</text>
    
    <!-- Backup System -->
    <rect x="900" y="70" width="200" height="80" rx="5" fill="#7C3AED"/>
    <text x="1000" y="95" text-anchor="middle" font-family="Arial, sans-serif" font-size="12" fill="white">Backup System</text>
    <text x="1000" y="115" text-anchor="middle" font-family="Arial, sans-serif" font-size="10" fill="#E5E7EB">Automated Backups</text>
    <text x="1000" y="130" text-anchor="middle" font-family="Arial, sans-serif" font-size="8" fill="#C4B5FD">Cron Jobs</text>
    
    <!-- Health Monitoring -->
    <rect x="1150" y="70" width="150" height="80" rx="5" fill="#F59E0B"/>
    <text x="1225" y="95" text-anchor="middle" font-family="Arial, sans-serif" font-size="12" fill="white">Health Checks</text>
    <text x="1225" y="115" text-anchor="middle" font-family="Arial, sans-serif" font-size="10" fill="#1F2937">Real-time Monitoring</text>
    
    <!-- Connection Lines -->
    <path d="M 300 110 L 350 110" stroke="#60A5FA" stroke-width="2" fill="none"/>
    <path d="M 600 110 L 650 110" stroke="#60A5FA" stroke-width="2" fill="none"/>
    <path d="M 850 110 L 900 110" stroke="#60A5FA" stroke-width="2" fill="none"/>
    <path d="M 1100 110 L 1150 110" stroke="#60A5FA" stroke-width="2" fill="none"/>
  </g>

  <!-- ========== LEGEND ========== -->
  <g transform="translate(100, 800)">
    <rect x="0" y="0" width="1400" height="80" rx="8" fill="#1E293B" stroke="#374151" stroke-width="1"/>
    <text x="700" y="20" text-anchor="middle" font-family="Arial, sans-serif" font-size="14" font-weight="bold" fill="white">
      SYSTEM CAPABILITIES LEGEND
    </text>
    
    <!-- Legend Items -->
    <g transform="translate(50, 35)">
      <rect x="0" y="0" width="15" height="15" fill="#1E40AF"/>
      <text x="25" y="12" font-family="Arial, sans-serif" font-size="12" fill="#E5E7EB">Core System Tools</text>
      
      <rect x="200" y="0" width="15" height="15" fill="#F59E0B"/>
      <text x="225" y="12" font-family="Arial, sans-serif" font-size="12" fill="#E5E7EB">Web Development Stack</text>
      
      <rect x="400" y="0" width="15" height="15" fill="#DC2626"/>
      <text x="425" y="12" font-family="Arial, sans-serif" font-size="12" fill="#E5E7EB">Security & Ethical Hacking</text>
      
      <rect x="600" y="0" width="15" height="15" fill="#059669"/>
      <text x="625" y="12" font-family="Arial, sans-serif" font-size="12" fill="#E5E7EB">DevOps & Containers</text>
      
      <rect x="800" y="0" width="15" height="15" fill="#7C3AED"/>
      <text x="825" y="12" font-family="Arial, sans-serif" font-size="12" fill="#E5E7EB">Data Science & AI</text>
    </g>
    
    <g transform="translate(50, 55)">
      <text x="0" y="12" font-family="Arial, sans-serif" font-size="10" fill="#94A3B8">
        🚀 250+ Packages • ⏱️ 30-60min Installation • 🛡️ Production Ready • 📊 Health Monitoring
      </text>
    </g>
  </g>

  <!-- Arrowhead marker -->
  <defs>
    <marker id="arrowhead" markerWidth="10" markerHeight="7" refX="9" refY="3.5" orient="auto">
      <polygon points="0 0, 10 3.5, 0 7" fill="#60A5FA"/>
    </marker>
  </defs>
</svg>